name Walk7.mot
datacolumns 19
datarows 30
range 2.66000000 2.80500000
endheader

                time	   L_ground_force_vx	   L_ground_force_vy	   L_ground_force_vz	   L_ground_force_px	   L_ground_force_py	   L_ground_force_pz	   R_ground_force_vx	   R_ground_force_vy	   R_ground_force_vz	   R_ground_force_px	   R_ground_force_py	   R_ground_force_pz	   L_ground_torque_x	   L_ground_torque_y	   L_ground_torque_z	   R_ground_torque_x	   R_ground_torque_y	   R_ground_torque_z	
          2.66000000	         -3.19752269	         79.43492598	         -4.44707010	          0.01798453	          0.00000000	         -0.01067073	         -0.00000000	          0.00000000	          0.00000000	          0.00000000	          0.00000000	          0.00000000	          0.00000000	          0.12633289	          0.00000000	          0.00000000	          0.00000000	          0.00000000	
          2.66500000	         -7.91392571	        122.47810173	         -6.09355643	         -0.05844224	          0.00000000	         -0.02401734	         -0.00000000	          0.00000000	         -0.00000000	         -0.00000000	          0.00000000	         -0.00000000	          0.00000000	          0.20982501	          0.00000000	          0.00000000	          0.00000000	          0.00000000	
          2.67000000	        -14.12201747	        173.07384145	         -7.48948425	         -0.12912906	          0.00000000	         -0.03709954	         -0.00000000	          0.00000000	         -0.00000000	         -0.00000000	          0.00000000	         -0.00000000	          0.00000000	          0.30351578	          0.00000000	          0.00000000	          0.00000000	          0.00000000	
          2.67500000	        -21.92501922	        229.56126641	         -8.42018132	         -0.19035377	          0.00000000	         -0.04914701	         -0.00000000	         -0.00000000	         -0.00000000	         -0.00000000	          0.00000000	         -0.00000000	          0.00000000	          0.40352343	          0.00000000	          0.00000000	          0.00000000	          0.00000000	
          2.68000000	        -31.28932354	        289.22966621	         -8.70328026	         -0.24045463	          0.00000000	         -0.05962191	         -0.00000000	         -0.00000001	         -0.00000000	         -0.00000000	          0.00000000	         -0.00000000	          0.00000000	          0.50317570	          0.00000000	          0.00000000	          0.00000000	          0.00000000	
          2.68500000	        -41.94116708	        349.00137932	         -8.23129040	         -0.27928739	          0.00000000	         -0.06826664	          0.00000000	         -0.00000001	         -0.00000000	         -0.00000000	          0.00000000	         -0.00000000	          0.00000000	          0.59271464	          0.00000000	          0.00000000	         -0.00000000	          0.00000000	
          2.69000000	        -53.34830901	        406.36962310	         -6.95028612	         -0.30766223	          0.00000000	         -0.07505268	          0.00000000	         -0.00000002	         -0.00000000	         -0.00000000	          0.00000000	         -0.00000000	          0.00000000	          0.66169056	          0.00000000	          0.00000000	         -0.00000000	          0.00000000	
          2.69500000	        -64.88150396	        459.71566812	         -4.83800739	         -0.32692725	          0.00000000	         -0.08010771	          0.00000000	         -0.00000003	         -0.00000000	         -0.00000000	          0.00000000	         -0.00000000	          0.00000000	          0.70185162	          0.00000000	          0.00000000	         -0.00000000	          0.00000000	
          2.70000000	        -76.03314169	        508.25693624	         -1.92711839	         -0.33865917	          0.00000000	         -0.08365056	          0.00000000	         -0.00000004	         -0.00000000	         -0.00000000	          0.00000000	         -0.00000000	          0.00000000	          0.70900709	          0.00000000	          0.00000000	         -0.00000000	          0.00000000	
          2.70500000	        -86.55492771	        551.90493773	          1.68237162	         -0.34445195	          0.00000000	         -0.08594286	          0.00000000	         -0.00000005	         -0.00000000	         -0.00000000	          0.00000000	         -0.00000000	          0.00000000	          0.68394607	          0.00000000	          0.00000000	         -0.00000000	          0.00000000	
          2.71000000	        -96.43312877	        590.99429232	          5.83747630	         -0.34578826	          0.00000000	         -0.08725063	          0.00000000	         -0.00000006	         -0.00000000	         -0.00000000	          0.00000000	         -0.00000000	          0.00000000	          0.63198529	          0.00000000	          0.00000000	         -0.00000000	          0.00000000	
          2.71500000	       -105.73288562	        626.02425678	         10.33976865	         -0.34397067	          0.00000000	         -0.08781924	          0.00000001	         -0.00000008	         -0.00000000	         -0.00000000	          0.00000000	         -0.00000000	          0.00000000	          0.56255794	          0.00000000	          0.00000000	         -0.00000000	          0.00000000	
          2.72000000	       -114.45389406	        657.56457159	         14.97610235	         -0.34008724	          0.00000000	         -0.08786715	          0.00000001	         -0.00000009	         -0.00000000	         -0.00000000	          0.00000000	         -0.00000000	          0.00000000	          0.48764877	          0.00000000	          0.00000000	         -0.00000000	          0.00000000	
          2.72500000	       -122.50276293	        686.21192054	         19.58420717	         -0.33500328	          0.00000000	         -0.08758390	          0.00000001	         -0.00000009	         -0.00000000	         -0.00000000	          0.00000000	         -0.00000000	          0.00000000	          0.41953467	          0.00000000	          0.00000000	         -0.00000000	          0.00000000	
          2.73000000	       -129.73892709	        712.49522254	         24.07634076	         -0.32937280	          0.00000000	         -0.08712881	          0.00000001	         -0.00000009	         -0.00000000	         -0.00000000	          0.00000000	         -0.00000000	          0.00000000	          0.36951234	          0.00000000	          0.00000000	         -0.00000000	          0.00000000	
          2.73500000	       -136.00939879	        736.78524061	         28.42654386	         -0.32366280	          0.00000000	         -0.08663139	          0.00000001	         -0.00000007	          0.00000000	         -0.00000000	          0.00000000	          0.00000000	          0.00000000	          0.34676852	          0.00000000	          0.00000000	         -0.00000000	          0.00000000	
          2.74000000	       -141.15778489	        759.27246508	         32.65526661	         -0.31818348	          0.00000000	         -0.08619334	          0.00000001	         -0.00000003	          0.00000000	          0.00000000	          0.00000000	          0.00000000	          0.00000000	          0.35745655	          0.00000000	          0.00000000	         -0.00000000	          0.00000000	
          2.74500000	       -145.04231399	        780.02413305	         36.80114345	         -0.31311953	          0.00000000	         -0.08588904	          0.00000001	          0.00000003	          0.00000001	          0.00000000	          0.00000000	          0.00000000	          0.00000000	          0.40602601	          0.00000000	          0.00000000	         -0.00000000	          0.00000000	
          2.75000000	       -147.56888304	        799.05461739	         40.89442909	         -0.30855983	          0.00000000	         -0.08576572	          0.00000001	          0.00000011	          0.00000001	          0.00000000	          0.00000000	          0.00000000	          0.00000000	          0.49721136	          0.00000000	          0.00000000	         -0.00000000	          0.00000000	
          2.75500000	       -148.71291408	        816.37352601	         44.95387067	         -0.30452607	          0.00000000	         -0.08584666	          0.00000000	          0.00000024	          0.00000002	          0.00000000	          0.00000000	          0.00000000	          0.00000000	          0.63512736	          0.00000000	          0.00000000	          0.00000000	          0.00000000	
          2.76000000	       -148.52066462	        832.02060043	         48.99559597	         -0.30099896	          0.00000000	         -0.08613399	         -0.00000001	          0.00000040	          0.00000003	          0.00000000	          0.00000000	          0.00000000	          0.00000000	          0.82101273	          0.00000000	          0.00000000	          0.00000000	          0.00000000	
          2.76500000	       -147.10241817	        846.07603461	         53.03909362	         -0.29793982	          0.00000000	         -0.08660988	         -0.00000002	          0.00000061	          0.00000003	          0.00000000	          0.00000000	          0.00000000	          0.00000000	          1.05137105	          0.00000000	          0.00000000	          0.00000001	          0.00000000	
          2.77000000	       -144.62422595	        858.65371526	         57.10257571	         -0.29530650	          0.00000000	         -0.08723966	         -0.00000004	          0.00000086	          0.00000004	          0.00000000	          0.00000000	          0.00000000	          0.00000000	          1.31681135	          0.00000000	          0.00000000	          0.00000001	          0.00000000	
          2.77500000	       -141.29674935	        869.89618299	         61.19172000	         -0.29306279	          0.00000000	         -0.08797607	         -0.00000007	          0.00000114	          0.00000005	          0.00000000	          0.00000000	          0.00000000	          0.00000000	          1.60298313	          0.00000000	          0.00000000	          0.00000001	          0.00000000	
          2.78000000	       -137.35173121	        879.96205689	         65.29128496	         -0.29117778	          0.00000000	         -0.08876688	         -0.00000009	          0.00000144	          0.00000006	          0.00000000	          0.00000000	          0.00000000	          0.00000000	          1.89326276	          0.00000000	          0.00000000	          0.00000002	          0.00000000	
          2.78500000	       -133.00520474	        888.99434992	         69.36510025	         -0.28961867	          0.00000000	         -0.08956478	         -0.00000013	          0.00000173	          0.00000006	          0.00000000	          0.00000000	          0.00000000	          0.00000000	          2.17216952	          0.00000000	          0.00000000	          0.00000003	          0.00000000	
          2.79000000	       -128.42296997	        897.08748196	         73.35832569	         -0.28834306	          0.00000000	         -0.09033650	         -0.00000017	          0.00000197	          0.00000005	          0.00000000	          0.00000000	          0.00000000	          0.00000000	          2.42916024	          0.00000000	          0.00000000	          0.00000004	          0.00000000	
          2.79500000	       -123.70386830	        904.27551420	         77.19825405	         -0.28729486	          0.00000000	         -0.09106613	         -0.00000020	          0.00000209	          0.00000004	          0.00000000	          0.00000000	          0.00000000	          0.00000000	          2.66015503	          0.00000000	          0.00000000	          0.00000004	          0.00000000	
          2.80000000	       -118.88354939	        910.54175988	         80.79331094	         -0.28640634	          0.00000000	         -0.09175355	         -0.00000024	          0.00000203	          0.00000002	          0.00000000	          0.00000000	          0.00000000	          0.00000000	          2.86656328	          0.00000000	          0.00000000	          0.00000005	          0.00000000	
          2.80500000	       -113.95788040	        915.85205487	         84.03820965	         -0.28560744	          0.00000000	         -0.09240632	         -0.00000026	          0.00000168	         -0.00000002	          0.00000000	          0.00000000	          0.00000000	          0.00000000	          3.05258707	          0.00000000	          0.00000000	          0.00000005	          0.00000000	
